<svg xmlns="http://www.w3.org/2000/svg" fill="none" viewBox="0 0 135 41" class="h-8 astro-TDTGUOKR" astro-icon="appstore-badge"><g clip-path="url(#astroicon:appstore-badgea)"><path fill="#A6A6A6" d="M130.218 40.54H5.308C2.712 40.54.6 38.41.6 35.805V5.266C.6 2.658 2.712.538 5.308.538h124.91C132.812.54 135 2.66 135 5.265v30.541c0 2.605-2.188 4.733-4.782 4.733Z"/><path fill="#161616" d="M134.037 35.808a3.822 3.822 0 0 1-3.817 3.83H5.308a3.826 3.826 0 0 1-3.822-3.83V5.265A3.831 3.831 0 0 1 5.308 1.43H130.22c2.111 0 3.817 1.72 3.817 3.835l.001 30.543Z"/><path fill="#fff" d="M30.593 20.323c-.029-3.223 2.627-4.79 2.749-4.864-1.505-2.203-3.836-2.504-4.655-2.528-1.959-.207-3.858 1.177-4.856 1.177-1.017 0-2.553-1.157-4.209-1.123-2.13.033-4.124 1.272-5.217 3.196-2.256 3.923-.573 9.688 1.588 12.86 1.081 1.552 2.345 3.286 3.998 3.225 1.618-.067 2.222-1.036 4.175-1.036 1.934 0 2.502 1.036 4.188.997 1.736-.028 2.83-1.56 3.873-3.127 1.25-1.78 1.75-3.533 1.77-3.623-.04-.014-3.371-1.29-3.404-5.154ZM27.408 10.847c.87-1.093 1.466-2.58 1.3-4.09-1.26.057-2.834.876-3.741 1.945-.802.942-1.52 2.486-1.334 3.938 1.415.106 2.867-.717 3.775-1.793ZM54.005 32.042h-2.26l-1.239-3.909h-4.305l-1.18 3.91h-2.2l4.264-13.309h2.634l4.286 13.308Zm-3.872-5.549-1.12-3.475c-.119-.355-.34-1.19-.668-2.507h-.04c-.13.566-.34 1.402-.63 2.507l-1.1 3.475h3.558ZM64.973 27.127c0 1.632-.439 2.922-1.317 3.869-.786.843-1.763 1.264-2.929 1.264-1.258 0-2.162-.454-2.713-1.362h-.04v5.055h-2.122V25.606c0-1.026-.027-2.079-.079-3.159h1.867l.119 1.521h.04c.707-1.146 1.781-1.718 3.223-1.718 1.127 0 2.068.447 2.82 1.342.755.896 1.131 2.074 1.131 3.535Zm-2.162.078c0-.934-.209-1.704-.63-2.31-.458-.632-1.074-.948-1.847-.948-.524 0-1 .176-1.425.523-.426.35-.704.807-.835 1.373-.066.264-.098.48-.098.65v1.6c0 .698.213 1.287.639 1.768.426.481.98.721 1.66.721.8 0 1.422-.31 1.867-.928.446-.619.669-1.435.669-2.449ZM75.96 27.127c0 1.632-.438 2.922-1.317 3.869-.786.843-1.763 1.264-2.928 1.264-1.259 0-2.163-.454-2.712-1.362h-.04v5.055H66.84V25.606c0-1.026-.026-2.079-.078-3.159h1.866l.119 1.521h.04c.706-1.146 1.78-1.718 3.223-1.718 1.126 0 2.067.447 2.822 1.342.751.896 1.129 2.074 1.129 3.535Zm-2.162.078c0-.934-.21-1.704-.63-2.31-.459-.632-1.073-.948-1.847-.948-.524 0-1 .176-1.425.523-.426.35-.704.807-.835 1.373-.064.264-.098.48-.098.65v1.6c0 .698.213 1.287.637 1.768.426.48.98.721 1.663.721.8 0 1.421-.31 1.866-.928.446-.619.67-1.435.67-2.449ZM88.247 28.31c0 1.132-.392 2.053-1.177 2.764-.863.777-2.065 1.165-3.609 1.165-1.426 0-2.569-.276-3.434-.829l.492-1.777c.932.566 1.954.85 3.069.85.799 0 1.421-.182 1.868-.544.445-.362.667-.848.667-1.454 0-.54-.183-.995-.55-1.364-.366-.369-.976-.712-1.828-1.029-2.32-.869-3.479-2.142-3.479-3.816 0-1.094.406-1.99 1.22-2.689.81-.699 1.891-1.048 3.243-1.048 1.206 0 2.207.211 3.007.632l-.53 1.738c-.747-.408-1.592-.612-2.536-.612-.747 0-1.33.185-1.749.553-.353.33-.53.73-.53 1.205 0 .526.202.961.608 1.303.354.316.996.658 1.928 1.027 1.14.461 1.977 1 2.515 1.618.537.616.805 1.387.805 2.307ZM95.263 24.046h-2.34v4.659c0 1.185.413 1.777 1.24 1.777.379 0 .693-.033.942-.1l.059 1.62c-.418.157-.969.236-1.65.236-.84 0-1.494-.257-1.967-.77-.471-.514-.708-1.376-.708-2.587v-4.837h-1.394v-1.6h1.394v-1.757l2.085-.632v2.389h2.34v1.602ZM105.82 27.165c0 1.475-.42 2.686-1.258 3.633-.879.975-2.046 1.461-3.501 1.461-1.401 0-2.517-.467-3.35-1.401-.832-.934-1.248-2.113-1.248-3.534 0-1.487.428-2.705 1.287-3.652.857-.948 2.014-1.422 3.469-1.422 1.401 0 2.529.467 3.381 1.402.814.907 1.22 2.078 1.22 3.513Zm-2.202.069c0-.885-.188-1.644-.57-2.277-.445-.766-1.081-1.148-1.905-1.148-.853 0-1.501.383-1.946 1.148-.382.634-.57 1.405-.57 2.317 0 .885.188 1.644.57 2.276.459.766 1.1 1.148 1.927 1.148.81 0 1.447-.39 1.906-1.168.391-.645.588-1.412.588-2.296ZM112.719 24.322a3.669 3.669 0 0 0-.669-.059c-.747 0-1.325.283-1.731.85-.353.5-.53 1.132-.53 1.895v5.035h-2.122l.02-6.574c0-1.106-.027-2.113-.08-3.021h1.849l.078 1.836h.059c.224-.631.577-1.139 1.061-1.52a2.558 2.558 0 0 1 1.534-.514c.196 0 .373.014.531.039v2.033ZM122.213 26.79a5 5 0 0 1-.078.966h-6.367c.024.948.332 1.674.923 2.174.537.447 1.231.67 2.083.67.943 0 1.803-.15 2.577-.454l.332 1.48c-.904.396-1.971.593-3.203.593-1.481 0-2.644-.438-3.49-1.313-.844-.874-1.267-2.05-1.267-3.523 0-1.447.393-2.652 1.18-3.613.825-1.026 1.939-1.54 3.34-1.54 1.377 0 2.42.514 3.128 1.54.56.814.842 1.823.842 3.02Zm-2.024-.553c.014-.632-.125-1.178-.412-1.64-.368-.593-.932-.889-1.692-.889-.694 0-1.258.29-1.689.87-.354.46-.564 1.014-.628 1.657h4.421v.002ZM49.432 10.546c0 1.177-.351 2.063-1.053 2.658-.65.549-1.574.824-2.77.824a12.79 12.79 0 0 1-1.527-.078V7.519c.555-.09 1.152-.136 1.797-.136 1.14 0 2 .249 2.579.747.649.563.974 1.368.974 2.416Zm-1.1.029c0-.763-.201-1.348-.603-1.756-.402-.407-.99-.611-1.763-.611-.329 0-.609.022-.84.068v4.889c.128.02.363.029.704.029.799 0 1.415-.223 1.849-.67.434-.445.653-1.095.653-1.95ZM55.264 11.574c0 .725-.206 1.32-.618 1.785-.432.48-1.004.718-1.72.718-.688 0-1.237-.229-1.646-.689-.408-.459-.612-1.038-.612-1.736 0-.73.21-1.329.632-1.794.422-.465.99-.698 1.705-.698.688 0 1.242.23 1.661.688.398.446.599 1.022.599 1.726Zm-1.082.034c0-.435-.093-.808-.28-1.119-.218-.376-.53-.564-.935-.564-.42 0-.738.188-.957.564-.187.311-.28.69-.28 1.138 0 .435.094.808.28 1.12.226.375.54.563.947.563.398 0 .71-.19.936-.574.193-.317.29-.693.29-1.128ZM63.087 9.258l-1.469 4.714h-.955l-.609-2.047a15.362 15.362 0 0 1-.377-1.523h-.019c-.09.518-.216 1.025-.377 1.523l-.646 2.047h-.967l-1.38-4.714h1.071l.531 2.24c.128.53.234 1.036.319 1.514h.018c.078-.394.207-.896.388-1.503l.666-2.25h.85l.638 2.202c.154.537.28 1.054.376 1.552h.03c.07-.485.177-1.002.318-1.552l.57-2.202h1.024v-.001ZM68.495 13.97H67.45v-2.7c0-.833-.314-1.249-.946-1.249a.94.94 0 0 0-.753.343 1.22 1.22 0 0 0-.29.808v2.796h-1.043v-3.366c0-.414-.013-.863-.038-1.349h.917l.049.737h.028c.122-.229.303-.418.541-.569.283-.176.6-.265.946-.265.438 0 .802.142 1.092.427.36.35.54.87.54 1.562v2.824ZM71.372 13.97H70.33V7.095h1.042v6.877ZM77.514 11.574c0 .725-.206 1.32-.618 1.785-.432.48-1.005.718-1.72.718-.689 0-1.238-.229-1.646-.689-.408-.459-.612-1.038-.612-1.736 0-.73.21-1.329.632-1.794.422-.465.99-.698 1.704-.698.69 0 1.242.23 1.662.688.398.446.598 1.022.598 1.726Zm-1.083.034c0-.435-.093-.808-.28-1.119-.218-.376-.53-.564-.934-.564-.42 0-.739.188-.957.564-.187.311-.28.69-.28 1.138 0 .435.094.808.28 1.12.226.375.54.563.947.563.398 0 .71-.19.935-.574.194-.317.29-.693.29-1.128ZM82.564 13.97h-.937l-.078-.543h-.029c-.32.433-.777.65-1.37.65-.444 0-.802-.143-1.072-.427a1.342 1.342 0 0 1-.367-.96c0-.576.239-1.015.72-1.319.48-.304 1.155-.453 2.024-.446v-.088c0-.62-.325-.93-.975-.93-.463 0-.871.116-1.224.348l-.212-.688c.437-.27.975-.407 1.61-.407 1.227 0 1.842.65 1.842 1.95v1.736c0 .471.023.846.068 1.124Zm-1.083-1.62v-.727c-1.151-.02-1.727.297-1.727.95 0 .246.066.43.2.553a.728.728 0 0 0 .51.184c.23 0 .443-.073.638-.218a.893.893 0 0 0 .379-.742ZM88.494 13.97h-.926l-.049-.756h-.029c-.295.576-.8.864-1.507.864-.566 0-1.037-.223-1.41-.67-.373-.445-.56-1.024-.56-1.735 0-.763.203-1.381.609-1.853.393-.44.875-.66 1.448-.66.63 0 1.072.213 1.323.64h.02V7.094h1.044V12.7c0 .459.012.882.037 1.27Zm-1.082-1.987v-.786c0-.136-.01-.246-.028-.33a1.194 1.194 0 0 0-.378-.635 1.023 1.023 0 0 0-.698-.257c-.389 0-.694.155-.918.466-.222.31-.334.708-.334 1.193 0 .466.106.844.32 1.135.227.31.531.465.912.465.343 0 .617-.13.825-.388.2-.24.3-.527.3-.863ZM97.417 11.574c0 .725-.206 1.32-.618 1.785-.433.48-1.004.718-1.72.718-.688 0-1.236-.229-1.646-.689-.409-.459-.613-1.038-.613-1.736 0-.73.21-1.329.633-1.794.422-.465.99-.698 1.705-.698.688 0 1.242.23 1.66.688.399.446.599 1.022.599 1.726Zm-1.081.034c0-.435-.094-.808-.28-1.119-.22-.376-.53-.564-.937-.564-.418 0-.737.188-.957.564-.187.311-.28.69-.28 1.138 0 .435.094.808.28 1.12.226.375.54.563.947.563.398 0 .712-.19.937-.574.192-.317.29-.693.29-1.128ZM103.027 13.97h-1.043v-2.7c0-.833-.314-1.249-.946-1.249-.31 0-.56.114-.753.343-.193.23-.29.5-.29.808v2.796h-1.044v-3.366c0-.414-.012-.863-.037-1.349h.916l.049.737h.029c.122-.229.303-.418.54-.569.284-.176.6-.265.947-.265.437 0 .801.142 1.091.427.362.35.541.87.541 1.562v2.824ZM110.048 10.041h-1.149v2.29c0 .582.204.873.608.873.187 0 .343-.016.465-.049l.027.795c-.206.078-.477.117-.81.117-.413 0-.733-.126-.965-.378-.233-.252-.349-.676-.349-1.271v-2.377h-.686v-.785h.686v-.864l1.023-.31v1.173h1.149v.786h.001ZM115.57 13.97h-1.044v-2.68c0-.844-.315-1.267-.945-1.267-.484 0-.815.245-.996.735a1.317 1.317 0 0 0-.049.377v2.835h-1.042V7.094h1.042v2.84h.02c.329-.516.8-.774 1.41-.774.432 0 .79.142 1.073.427.354.355.531.883.531 1.58v2.804ZM121.268 11.391c0 .188-.014.346-.039.475H118.1c.014.466.163.821.453 1.067.265.22.606.33 1.025.33a3.44 3.44 0 0 0 1.265-.223l.163.728c-.445.194-.968.291-1.575.291-.726 0-1.299-.215-1.713-.645-.416-.43-.622-1.007-.622-1.73 0-.712.192-1.304.579-1.776.404-.504.951-.756 1.641-.756.675 0 1.187.252 1.534.756.28.4.418.895.418 1.483Zm-.995-.27a1.419 1.419 0 0 0-.203-.806c-.181-.29-.457-.437-.83-.437a.99.99 0 0 0-.83.427 1.594 1.594 0 0 0-.31.815h2.173Z"/></g><defs><clipPath id="astroicon:appstore-badgea"><path fill="#fff" d="M0 0h134.4v40H0z" transform="translate(.6 .54)"/></clipPath></defs></svg>