<svg xmlns="http://www.w3.org/2000/svg" fill="none" viewBox="0 0 141 32" class="h-10 md:h-[4rem]" astro-icon="logomark"><path fill="#2A2F32" d="M23.72 18.215v-2.264l-1.968-1.083-1.968-1.182-1.969-1.181-1.968-1.083-1.969-1.182-2.067-1.181-1.968 1.181-1.969 1.182 1.969 1.083 1.968 1.181 2.067 1.182 1.969 1.083 1.968 1.181 1.969 1.083v4.628l-1.969 1.083-1.968 1.182-1.969 1.181-2.067 1.083-1.968-1.083-1.969-1.181-1.968-1.182-1.969-1.083-1.968-1.181L0 20.579v4.529l1.969 1.181 1.968 1.083 1.969 1.182 1.968 1.083 1.969 1.182L11.81 32l2.067-1.181 1.969-1.182 1.968-1.083 1.969-1.182 1.968-1.083 1.969-1.181v-6.893Z"/><path fill="#3398D4" d="M23.72 6.794 21.753 5.71l-1.968-1.182-1.969-1.181-1.968-1.083-1.969-1.182L11.811 0 9.843 1.083 7.874 2.265 5.906 3.348 3.937 4.529 1.97 5.711 0 6.794v9.157l1.969 1.181 1.968 1.083 1.969 1.182 1.968 1.181 1.969 1.084 1.968 1.181 2.067-1.181 1.969-1.084-1.969-1.181-2.067-1.182-1.968-1.083-1.969-1.181-1.968-1.083-1.969-1.182V9.058l1.969-1.083 1.968-1.181L9.843 5.71l1.968-1.182 2.067 1.182 1.969 1.083 1.968 1.181 1.969 1.083 1.968 1.182 1.969 1.181V6.795ZM60.63 3.938l-.294-.099-.296-.197-.295-.197-.295-.098-.296-.197-.295-.197-.295.197-.197.197-.295.098-.296.197-.295.197-.295.099-.295.197v2.264l.295.197.295.099.295.197.296.197.295.098.197.197.295.197.295-.197.296-.197.295-.098.295-.197.296-.197.295-.099.197-.197V4.135l-.197-.197Z"/><path fill="#2A2F32" d="M33.661 22.449a9.447 9.447 0 0 1-3.248-.591c-1.082-.394-1.968-.886-2.657-1.576l1.378-2.461c.787.59 1.575.984 2.362 1.28.787.295 1.476.492 2.165.492.493 0 .886-.098 1.182-.197.295-.197.393-.394.393-.689 0-.197-.098-.394-.295-.59-.197-.1-.394-.296-.787-.395-.296-.098-.788-.197-1.28-.393-.984-.296-1.772-.69-2.46-.985-.69-.295-1.182-.69-1.477-1.182-.295-.492-.492-.984-.492-1.772 0-.886.197-1.575.689-2.264.393-.69 1.082-1.182 1.87-1.477.787-.394 1.772-.493 2.854-.493.886 0 1.772.099 2.658.394.886.295 1.673.788 2.362 1.379l-1.476 2.461c-.788-.492-1.378-.886-1.969-1.083-.59-.197-1.181-.394-1.673-.394-.295 0-.492 0-.788.099l-.59.295c-.099.197-.197.394-.197.59 0 .198.098.395.197.592.098.098.394.295.689.393.295.099.689.197 1.181.394 1.083.296 1.969.591 2.658.985.689.295 1.28.69 1.574 1.181.394.493.492 1.084.492 1.871 0 1.28-.492 2.363-1.377 3.053-.985.689-2.264 1.083-3.938 1.083ZM49.312 22.449c-.984 0-1.87-.197-2.56-.591a4.549 4.549 0 0 1-1.672-1.674v7.385h-3.937V9.255h3.444v2.166c.493-.69 1.083-1.28 1.772-1.674.69-.394 1.575-.59 2.56-.59.885 0 1.673.196 2.46.492.689.295 1.378.787 1.968 1.378.591.59.985 1.28 1.28 2.068.295.787.492 1.674.492 2.56 0 1.28-.197 2.363-.689 3.446a6.667 6.667 0 0 1-1.968 2.363c-1.083.69-2.067.985-3.15.985ZM47.934 19.1c.394 0 .787-.099 1.181-.296.394-.196.69-.393.886-.689.295-.295.492-.689.59-1.083.099-.394.197-.886.197-1.28 0-.492-.098-.886-.196-1.28a3.537 3.537 0 0 0-.69-.984 3.537 3.537 0 0 0-.984-.69c-.295-.295-.689-.295-1.18-.295-.296 0-.493 0-.788.098-.296.099-.492.197-.788.296-.197.197-.492.295-.689.492a2.993 2.993 0 0 0-.492.69v2.658c.197.394.394.788.69 1.181.294.296.59.591.983.788.493.295.886.394 1.28.394ZM60.828 9.156H56.89v12.997h3.937V9.156ZM86.025 22.449a9.278 9.278 0 0 1-2.952-.493c-.886-.394-1.575-.787-2.166-1.477-.59-.59-1.082-1.28-1.378-2.067-.295-.788-.492-1.576-.492-2.462 0-1.28.295-2.363.787-3.348.591-.984 1.379-1.87 2.363-2.461 1.082-.59 2.264-.985 3.74-.985 1.476 0 2.756.296 3.74.886.984.591 1.87 1.477 2.362 2.462.591.985.788 2.068.788 3.25v.688c0 .197 0 .394-.099.591h-9.645c.098.59.197 1.083.492 1.379.295.393.59.689 1.082.886.394.197.886.295 1.378.295.591 0 1.181-.098 1.674-.394.492-.295.886-.689 1.082-1.181l3.347.984c-.295.69-.787 1.28-1.378 1.773-.59.492-1.28.886-2.165 1.181-.69.296-1.575.493-2.56.493Zm-2.854-7.877h5.61c-.098-.493-.197-.985-.492-1.379s-.59-.69-.984-.886c-.394-.197-.886-.295-1.378-.295-.492 0-.984.098-1.378.295-.394.197-.689.492-.984.886-.197.394-.296.788-.394 1.379ZM103.054 12.502c-.984 0-1.87.197-2.559.493-.787.295-1.378.788-1.673 1.378v7.779h-3.937V9.253h3.642v2.462c.492-.886.984-1.576 1.771-2.068.689-.492 1.477-.788 2.264-.788h.591v3.643h-.099ZM104.529 17.526V9.255h3.937v7.384c0 .788.197 1.379.493 1.773.295.393.787.59 1.377.59.394 0 .689-.098 1.083-.197.295-.098.689-.295.984-.59.296-.296.591-.591.886-1.083V9.156h3.937v8.468c0 .394.099.69.197.788.099.197.295.295.689.295v3.25c-.394.098-.689.098-.984.196-.295 0-.492.099-.689.099-.689 0-1.28-.099-1.673-.394-.394-.296-.689-.69-.788-1.182l-.098-.787c-.591.886-1.378 1.477-2.264 1.87-.886.394-1.87.591-2.953.591-1.279 0-2.362-.394-3.051-1.28-.689-.788-1.083-1.97-1.083-3.544ZM140.85 22.153h-3.937v-7.187c0-.788-.197-1.477-.492-1.871a1.404 1.404 0 0 0-1.182-.591c-.492 0-1.082.197-1.574.59-.493.395-.886.985-1.083 1.675v7.286h-3.937v-7.188c0-.886-.197-1.477-.492-1.87a1.404 1.404 0 0 0-1.181-.591c-.493 0-.985.196-1.575.59a3.502 3.502 0 0 0-1.083 1.576v7.384h-3.937V9.255h3.543v2.264c.492-.787 1.083-1.378 1.969-1.772.787-.394 1.772-.59 2.854-.59 1.083 0 1.87.295 2.461.787.59.492.984 1.083 1.083 1.772.492-.787 1.181-1.378 1.968-1.87.788-.394 1.772-.69 2.756-.69.787 0 1.476.197 1.969.493a3.4 3.4 0 0 1 1.181 1.181c.295.492.492.985.59 1.575.099.591.197 1.084.197 1.674v8.074h-.098ZM62.895 15.754c0-1.28.295-2.363.787-3.347a6.018 6.018 0 0 1 2.067-2.363 5.207 5.207 0 0 1 2.953-.887c.886 0 1.771.197 2.46.69.788.394 1.28.984 1.674 1.772V4.234h3.937v13.687c0 .393.098.689.197.787.098.197.393.296.689.296v3.249c-.69.098-1.28.197-1.674.197-.689 0-1.18-.197-1.673-.492a1.925 1.925 0 0 1-.787-1.28l-.099-.69c-.492.788-1.082 1.379-1.87 1.773a5.641 5.641 0 0 1-2.46.59c-.886 0-1.674-.197-2.461-.492-.788-.295-1.378-.788-1.969-1.379-.59-.59-.984-1.28-1.28-2.166-.393-.787-.492-1.674-.492-2.56Zm9.94 1.576V14.67c-.196-.393-.393-.787-.688-1.083a4.372 4.372 0 0 0-1.083-.787 2.621 2.621 0 0 0-1.181-.296 2.62 2.62 0 0 0-1.181.295c-.394.197-.69.394-.886.69-.295.295-.492.689-.59 1.083-.1.394-.198.787-.198 1.28 0 .492.099.886.197 1.28.197.394.394.69.69 1.083.295.295.59.492.984.69.393.196.787.196 1.28.196.294 0 .59 0 .787-.098.295-.099.492-.197.787-.394.197-.099.492-.296.689-.591.098-.197.197-.492.394-.69Z"/></svg>